<svg id="Layer_1" data-name="Layer 1" xmlns="http://www.w3.org/2000/svg" viewBox="0 0 979.13 899.91"><defs><style>.cls-1{fill:#6d6d6d;fill-rule:evenodd;}</style></defs><path class="cls-1" d="M1188.85,463.81c-.23-36.05-36.31-65.19-80.8-65.28H838.58c-44.43.17-80.39,29.29-80.59,65.28.2,36,36.16,65.11,80.59,65.28h269.47C1152.53,529,1188.59,499.84,1188.85,463.81Z" transform="translate(-479.87 -40.62)"/><path class="cls-1" d="M932.37,699.59h83.55a64.22,64.22,0,0,0,64.24-63.83V622.2a15.92,15.92,0,0,0-15.92-15.92H884.05a16,16,0,0,0-16,15.92v13.56A64.32,64.32,0,0,0,932.37,699.59Z" transform="translate(-479.87 -40.62)"/><path class="cls-1" d="M1321,189.06C1130.14-7.2,816.27-8.85,623.32,184.1v.05c-191.26,191.31-191.26,501.43,0,692.75h0a492.11,492.11,0,0,0,78.14,63.62l64.4-79.58c41.23-6.81,83.06-11.6,125.2-14.33v-60A271,271,0,0,1,715,609c-11.94-12.11-25.18-30.51-38.79-58.34-45.4-92.86-22.93-215.68-21.52-223.07-.86,5.48-2.94,28.33,13,67.69C677.8,420.35,698.37,438,714.91,449c33.38-108,132.57-187,250.72-190.31V224.5a57.55,57.55,0,0,1-14.17-4.06,56.84,56.84,0,0,1,23.64-109h0a56.87,56.87,0,0,1,7.49,113.08v34.18c116.59,3.94,214.45,81.68,248.35,188,15.89-11.05,34.46-28,44-51.43,15.95-39.37,13.86-62.22,13-67.69,1.4,7.37,23.88,130.21-21.52,223.07-11.42,23.37-22.59,40.08-33,52-24.53,86-91,155-175.55,183v61c42.11,2.67,83.92,7.4,125.12,14.16l61.13,75.48A492.16,492.16,0,0,0,1321,871.93C1505,682.76,1505,378.23,1321,189.06Z" transform="translate(-479.87 -40.62)"/></svg>