<svg id="Layer_1" data-name="Layer 1" xmlns="http://www.w3.org/2000/svg" viewBox="0 0 979.13 990.38"><defs><style>.cls-1{fill:#6d6d6d;fill-rule:evenodd;}.cls-2{fill:#fff;}</style></defs><path id="Background" class="cls-1" d="M623.32,184.1c192.95-192.95,506.82-191.3,697.7,5,184,189.17,184,493.7,0,682.87-190.87,196.27-504.74,197.92-697.7,5h0c-191.26-191.32-191.26-501.44,0-692.75Z" transform="translate(-479.87 -40.62)"/><path id="Face" class="cls-2" d="M1057.88,846.78v-61c84.55-28,151-97,175.55-183,10.36-11.93,21.53-28.64,33-52,45.4-92.86,22.92-215.7,21.52-223.07.86,5.47,2.95,28.32-13,67.69-9.49,23.41-28.06,40.38-44,51.43-33.9-106.31-131.76-184-248.35-188V224.56a56.86,56.86,0,0,0-7.49-113.08h0a56.84,56.84,0,0,0-23.64,109,57.55,57.55,0,0,0,14.17,4.06v34.17C847.48,262,748.29,341,714.91,449c-16.54-11-37.11-28.63-47.25-53.68-15.95-39.36-13.87-62.21-13-67.69-1.41,7.39-23.88,130.21,21.52,223.07C689.78,578.51,703,596.91,715,609a271,271,0,0,0,176.1,177.57v60c-42.14,2.73-84,7.52-125.2,14.33L661.71,989.65c201.34,55.13,424.18,55.13,625.53,0L1183,860.94C1141.8,854.18,1100,849.45,1057.88,846.78ZM758,463.81c.2-36,36.16-65.11,80.59-65.28h269.47c44.49.09,80.57,29.23,80.8,65.28-.26,36-36.32,65.16-80.8,65.28H838.58C794.15,528.92,758.19,499.79,758,463.81ZM932.37,699.59a64.32,64.32,0,0,1-64.28-63.83V622.2a16,16,0,0,1,16-15.92h180.19a15.92,15.92,0,0,1,15.92,15.92v13.56a64.22,64.22,0,0,1-64.24,63.83Z" transform="translate(-479.87 -40.62)"/></svg>